<?xml version="1.0" standalone="no"?>
<!DOCTYPE svg PUBLIC "-//W3C//DTD SVG 20010904//EN"
 "http://www.w3.org/TR/2001/REC-SVG-20010904/DTD/svg10.dtd">
<svg version="1.0" xmlns="http://www.w3.org/2000/svg"
 width="700.000000pt" height="700.000000pt" viewBox="0 0 700.000000 700.000000"
 preserveAspectRatio="xMidYMid meet">
<g transform="translate(0.000000,700.000000) scale(0.100000,-0.100000)"
fill="#000000" stroke="none">
<path d="M3324 6990 c-635 -32 -1234 -230 -1762 -583 -849 -567 -1407 -1471
-1532 -2482 -28 -231 -28 -619 0 -850 165 -1331 1082 -2458 2347 -2885 324
-109 613 -163 955 -179 451 -21 870 38 1291 179 1265 427 2182 1554 2347 2885
39 317 27 730 -31 1050 -189 1036 -835 1931 -1764 2443 -437 240 -967 394
-1440 417 -66 3 -151 7 -190 9 -38 2 -138 0 -221 -4z m2126 -1464 c68 -19 100
-42 123 -87 59 -119 53 -452 -13 -775 -153 -744 -603 -1447 -1145 -1789 -322
-203 -685 -314 -1183 -362 -60 -5 -86 -27 -211 -173 -220 -258 -672 -585
-1116 -807 -264 -133 -464 -194 -479 -146 -3 10 3 52 15 93 78 283 390 835
666 1180 121 150 272 305 388 395 80 63 85 69 85 105 l0 39 -157 -76 c-134
-64 -450 -204 -782 -347 -104 -44 -151 -47 -180 -10 -27 34 -27 92 -2 172 16
53 420 837 554 1077 171 305 274 409 452 455 110 29 349 40 470 22 l90 -13 40
48 c95 112 152 173 237 251 463 424 1067 690 1738 766 83 9 356 -2 410 -18z
m-870 -2838 c0 -116 -24 -282 -51 -353 -31 -84 -57 -122 -130 -190 -107 -98
-146 -122 -886 -523 -447 -243 -530 -279 -607 -268 -48 8 -86 42 -86 78 0 25
201 500 339 799 l30 66 88 7 c320 25 647 111 918 240 129 62 283 152 340 200
17 14 33 25 38 26 4 0 7 -37 7 -82z"/>
<path d="M4864 5062 c-153 -72 -163 -293 -16 -379 136 -80 307 12 320 171 5
69 -35 149 -96 190 -55 39 -146 47 -208 18z"/>
<path d="M4280 4684 c-182 -31 -310 -139 -360 -302 -94 -303 163 -602 476
-553 165 25 295 138 349 300 12 38 16 76 13 144 -2 78 -8 102 -35 159 -54 114
-162 209 -268 236 -51 13 -142 21 -175 16z"/>
</g>
</svg>
